ffmpeg version 3.4.8-0ubuntu0.2 Copyright (c) 2000-2020 the FFmpeg developers
  built with gcc 7 (Ubuntu 7.5.0-3ubuntu1~18.04)
  configuration: --prefix=/usr --extra-version=0ubuntu0.2 --toolchain=hardened --libdir=/usr/lib/x86_64-linux-gnu --incdir=/usr/include/x86_64-linux-gnu --enable-gpl --disable-stripping --enable-avresample --enable-avisynth --enable-gnutls --enable-ladspa --enable-libass --enable-libbluray --enable-libbs2b --enable-libcaca --enable-libcdio --enable-libflite --enable-libfontconfig --enable-libfreetype --enable-libfribidi --enable-libgme --enable-libgsm --enable-libmp3lame --enable-libmysofa --enable-libopenjpeg --enable-libopenmpt --enable-libopus --enable-libpulse --enable-librubberband --enable-librsvg --enable-libshine --enable-libsnappy --enable-libsoxr --enable-libspeex --enable-libssh --enable-libtheora --enable-libtwolame --enable-libvorbis --enable-libvpx --enable-libwavpack --enable-libwebp --enable-libx265 --enable-libxml2 --enable-libxvid --enable-libzmq --enable-libzvbi --enable-omx --enable-openal --enable-opengl --enable-sdl2 --enable-libdc1394 --enable-libdrm --enable-libiec61883 --enable-chromaprint --enable-frei0r --enable-libopencv --enable-libx264 --enable-shared
  libavutil      55. 78.100 / 55. 78.100
  libavcodec     57.107.100 / 57.107.100
  libavformat    57. 83.100 / 57. 83.100
  libavdevice    57. 10.100 / 57. 10.100
  libavfilter     6.107.100 /  6.107.100
  libavresample   3.  7.  0 /  3.  7.  0
  libswscale      4.  8.100 /  4.  8.100
  libswresample   2.  9.100 /  2.  9.100
  libpostproc    54.  7.100 / 54.  7.100
[rawvideo @ 0x563eff938a20] Estimating duration from bitrate, this may be inaccurate
Input #0, rawvideo, from '../../SVC-Encoder-20220109T061506Z-001/SVC-Encoder/Dataset/RollerCoaster/ERP_8x8/tile_yuv/Tile_50_480x240.yuv':
  Duration: 00:00:10.00, start: 0.000000, bitrate: 41472 kb/s
    Stream #0:0: Video: rawvideo (I420 / 0x30323449), yuv420p, 480x240, 41472 kb/s, 30 tbr, 30 tbn, 30 tbc
Stream mapping:
  Stream #0:0 -> #0:0 (rawvideo (native) -> h264 (libx264))
Press [q] to stop, [?] for help
[libx264 @ 0x563eff945c60] using cpu capabilities: MMX2 SSE2Fast LZCNT SSSE3 SSE4.2 AVX
[libx264 @ 0x563eff945c60] profile High, level 2.1
Output #0, rawvideo, to 'RollerCoaster_Tile_50_480x240_x264_QP_32.h264':
  Metadata:
    encoder         : Lavf57.83.100
    Stream #0:0: Video: h264 (libx264), yuv420p, 480x240, q=-1--1, 30 fps, 30 tbn, 30 tbc
    Metadata:
      encoder         : Lavc57.107.100 libx264
    Side data:
      cpb: bitrate max/min/avg: 0/0/0 buffer size: 0 vbv_delay: -1
frame=  231 fps=0.0 q=38.0 PSNR=Y:nan U:nan V:nan *:nan size=      33kB time=00:00:06.26 bitrate=  43.3kbits/s speed=12.5x    frame=  300 fps=0.0 q=38.0 LPSNR=Y:inf U:inf V:inf *:inf size=      52kB time=00:00:09.93 bitrate=  42.6kbits/s speed=14.8x    
video:52kB audio:0kB subtitle:0kB other streams:0kB global headers:0kB muxing overhead: 0.000000%
[libx264 @ 0x563eff945c60] frame I:2     Avg QP:30.09  size:  4066  PSNR Mean Y:43.57 U:43.19 V:43.15 Avg:43.43 Global:43.42
[libx264 @ 0x563eff945c60] frame P:76    Avg QP:30.37  size:   324  PSNR Mean Y:42.75 U:43.89 V:43.33 Avg:43.00 Global:42.98
[libx264 @ 0x563eff945c60] frame B:222   Avg QP:37.51  size:    91  PSNR Mean Y:42.29 U:43.84 V:43.24 Avg:42.65 Global:42.62
[libx264 @ 0x563eff945c60] consecutive B-frames:  1.0%  0.7%  1.0% 97.3%
[libx264 @ 0x563eff945c60] mb I  I16..4: 54.0% 22.9% 23.1%
[libx264 @ 0x563eff945c60] mb P  I16..4:  0.8%  0.8%  0.0%  P16..4: 29.7%  2.6%  0.2%  0.0%  0.0%    skip:65.8%
[libx264 @ 0x563eff945c60] mb B  I16..4:  0.0%  0.0%  0.0%  B16..8: 15.7%  0.2%  0.0%  direct: 0.0%  skip:84.1%  L0:47.8% L1:52.0% BI: 0.1%
[libx264 @ 0x563eff945c60] 8x8 transform intra:32.1% inter:92.7%
[libx264 @ 0x563eff945c60] coded y,uvDC,uvAC intra: 17.6% 36.8% 18.2% inter: 0.6% 1.3% 0.0%
[libx264 @ 0x563eff945c60] i16 v,h,dc,p: 55% 33%  9%  3%
[libx264 @ 0x563eff945c60] i8 v,h,dc,ddl,ddr,vr,hd,vl,hu:  3% 21% 67%  1%  0%  0%  1%  0%  5%
[libx264 @ 0x563eff945c60] i4 v,h,dc,ddl,ddr,vr,hd,vl,hu:  8% 56% 16%  1%  1%  1%  5%  0% 11%
[libx264 @ 0x563eff945c60] i8c dc,h,v,p: 58% 35%  4%  3%
[libx264 @ 0x563eff945c60] Weighted P-Frames: Y:0.0% UV:0.0%
[libx264 @ 0x563eff945c60] ref P L0: 56.9% 12.8% 21.7%  8.6%
[libx264 @ 0x563eff945c60] ref B L0: 65.1% 27.8%  7.1%
[libx264 @ 0x563eff945c60] ref B L1: 79.0% 21.0%
[libx264 @ 0x563eff945c60] PSNR Mean Y:42.414 U:43.846 V:43.262 Avg:42.746 Global:42.717 kb/s:42.36
